<mxfile host="app.diagrams.net" agent="Mozilla/5.0 (Windows NT 10.0; Win64; x64) AppleWebKit/537.36 (KHTML, like Gecko) Chrome/123.0.0.0 Safari/537.36" version="24.7.12">
  <diagram name="第 1 页" id="_6SagvjyvGywZ57jKQz0">
    <mxGraphModel dx="1434" dy="780" grid="1" gridSize="10" guides="1" tooltips="1" connect="1" arrows="1" fold="1" page="1" pageScale="1" pageWidth="827" pageHeight="1169" math="0" shadow="0">
      <root>
        <mxCell id="0" />
        <mxCell id="1" parent="0" />
        <mxCell id="cM16gNGTXKO5gfXRbckl-2" value="&lt;span style=&quot;font-weight: 400; text-align: left;&quot;&gt;cor_admin_user&lt;/span&gt;&lt;div&gt;&lt;span style=&quot;font-weight: 400; text-align: left;&quot;&gt;(总部管理端登录用户)&lt;/span&gt;&lt;/div&gt;" style="shape=table;startSize=30;container=1;collapsible=1;childLayout=tableLayout;fixedRows=1;rowLines=0;fontStyle=1;align=center;resizeLast=1;html=1;" vertex="1" parent="1">
          <mxGeometry x="160" y="730" width="230" height="210" as="geometry">
            <mxRectangle x="140" y="790" width="240" height="30" as="alternateBounds" />
          </mxGeometry>
        </mxCell>
        <mxCell id="cM16gNGTXKO5gfXRbckl-3" value="" style="shape=tableRow;horizontal=0;startSize=0;swimlaneHead=0;swimlaneBody=0;fillColor=none;collapsible=0;dropTarget=0;points=[[0,0.5],[1,0.5]];portConstraint=eastwest;top=0;left=0;right=0;bottom=1;" vertex="1" parent="cM16gNGTXKO5gfXRbckl-2">
          <mxGeometry y="30" width="230" height="30" as="geometry" />
        </mxCell>
        <mxCell id="cM16gNGTXKO5gfXRbckl-4" value="PK" style="shape=partialRectangle;connectable=0;fillColor=none;top=0;left=0;bottom=0;right=0;fontStyle=1;overflow=hidden;whiteSpace=wrap;html=1;" vertex="1" parent="cM16gNGTXKO5gfXRbckl-3">
          <mxGeometry width="30" height="30" as="geometry">
            <mxRectangle width="30" height="30" as="alternateBounds" />
          </mxGeometry>
        </mxCell>
        <mxCell id="cM16gNGTXKO5gfXRbckl-5" value="&lt;font color=&quot;#ff0000&quot;&gt;user_id&lt;/font&gt;" style="shape=partialRectangle;connectable=0;fillColor=none;top=0;left=0;bottom=0;right=0;align=left;spacingLeft=6;fontStyle=5;overflow=hidden;whiteSpace=wrap;html=1;" vertex="1" parent="cM16gNGTXKO5gfXRbckl-3">
          <mxGeometry x="30" width="200" height="30" as="geometry">
            <mxRectangle width="200" height="30" as="alternateBounds" />
          </mxGeometry>
        </mxCell>
        <mxCell id="cM16gNGTXKO5gfXRbckl-6" value="" style="shape=tableRow;horizontal=0;startSize=0;swimlaneHead=0;swimlaneBody=0;fillColor=none;collapsible=0;dropTarget=0;points=[[0,0.5],[1,0.5]];portConstraint=eastwest;top=0;left=0;right=0;bottom=0;" vertex="1" parent="cM16gNGTXKO5gfXRbckl-2">
          <mxGeometry y="60" width="230" height="30" as="geometry" />
        </mxCell>
        <mxCell id="cM16gNGTXKO5gfXRbckl-7" value="" style="shape=partialRectangle;connectable=0;fillColor=none;top=0;left=0;bottom=0;right=0;editable=1;overflow=hidden;whiteSpace=wrap;html=1;" vertex="1" parent="cM16gNGTXKO5gfXRbckl-6">
          <mxGeometry width="30" height="30" as="geometry">
            <mxRectangle width="30" height="30" as="alternateBounds" />
          </mxGeometry>
        </mxCell>
        <mxCell id="cM16gNGTXKO5gfXRbckl-8" value="user_name &amp;amp; password" style="shape=partialRectangle;connectable=0;fillColor=none;top=0;left=0;bottom=0;right=0;align=left;spacingLeft=6;overflow=hidden;whiteSpace=wrap;html=1;" vertex="1" parent="cM16gNGTXKO5gfXRbckl-6">
          <mxGeometry x="30" width="200" height="30" as="geometry">
            <mxRectangle width="200" height="30" as="alternateBounds" />
          </mxGeometry>
        </mxCell>
        <mxCell id="cM16gNGTXKO5gfXRbckl-9" value="" style="shape=tableRow;horizontal=0;startSize=0;swimlaneHead=0;swimlaneBody=0;fillColor=none;collapsible=0;dropTarget=0;points=[[0,0.5],[1,0.5]];portConstraint=eastwest;top=0;left=0;right=0;bottom=0;" vertex="1" parent="cM16gNGTXKO5gfXRbckl-2">
          <mxGeometry y="90" width="230" height="30" as="geometry" />
        </mxCell>
        <mxCell id="cM16gNGTXKO5gfXRbckl-10" value="" style="shape=partialRectangle;connectable=0;fillColor=none;top=0;left=0;bottom=0;right=0;editable=1;overflow=hidden;whiteSpace=wrap;html=1;" vertex="1" parent="cM16gNGTXKO5gfXRbckl-9">
          <mxGeometry width="30" height="30" as="geometry">
            <mxRectangle width="30" height="30" as="alternateBounds" />
          </mxGeometry>
        </mxCell>
        <mxCell id="cM16gNGTXKO5gfXRbckl-11" value="agency_id" style="shape=partialRectangle;connectable=0;fillColor=none;top=0;left=0;bottom=0;right=0;align=left;spacingLeft=6;overflow=hidden;whiteSpace=wrap;html=1;" vertex="1" parent="cM16gNGTXKO5gfXRbckl-9">
          <mxGeometry x="30" width="200" height="30" as="geometry">
            <mxRectangle width="200" height="30" as="alternateBounds" />
          </mxGeometry>
        </mxCell>
        <mxCell id="cM16gNGTXKO5gfXRbckl-12" value="" style="shape=tableRow;horizontal=0;startSize=0;swimlaneHead=0;swimlaneBody=0;fillColor=none;collapsible=0;dropTarget=0;points=[[0,0.5],[1,0.5]];portConstraint=eastwest;top=0;left=0;right=0;bottom=0;" vertex="1" parent="cM16gNGTXKO5gfXRbckl-2">
          <mxGeometry y="120" width="230" height="40" as="geometry" />
        </mxCell>
        <mxCell id="cM16gNGTXKO5gfXRbckl-13" value="" style="shape=partialRectangle;connectable=0;fillColor=none;top=0;left=0;bottom=0;right=0;editable=1;overflow=hidden;whiteSpace=wrap;html=1;" vertex="1" parent="cM16gNGTXKO5gfXRbckl-12">
          <mxGeometry width="30" height="40" as="geometry">
            <mxRectangle width="30" height="40" as="alternateBounds" />
          </mxGeometry>
        </mxCell>
        <mxCell id="cM16gNGTXKO5gfXRbckl-14" value="&lt;b style=&quot;&quot;&gt;&lt;font color=&quot;#0000ff&quot;&gt;staff_id（当该字段大于0）&lt;/font&gt;&lt;/b&gt;" style="shape=partialRectangle;connectable=0;fillColor=none;top=0;left=0;bottom=0;right=0;align=left;spacingLeft=6;overflow=hidden;whiteSpace=wrap;html=1;" vertex="1" parent="cM16gNGTXKO5gfXRbckl-12">
          <mxGeometry x="30" width="200" height="40" as="geometry">
            <mxRectangle width="200" height="40" as="alternateBounds" />
          </mxGeometry>
        </mxCell>
        <mxCell id="cM16gNGTXKO5gfXRbckl-15" value="" style="endArrow=classic;html=1;rounded=0;entryX=0;entryY=0.5;entryDx=0;entryDy=0;" edge="1" parent="1" target="cM16gNGTXKO5gfXRbckl-33">
          <mxGeometry width="50" height="50" relative="1" as="geometry">
            <mxPoint x="280" y="880" as="sourcePoint" />
            <mxPoint x="461" y="842" as="targetPoint" />
          </mxGeometry>
        </mxCell>
        <mxCell id="cM16gNGTXKO5gfXRbckl-16" value="cor_user_info&lt;div&gt;会员表&lt;/div&gt;" style="shape=table;startSize=30;container=1;collapsible=1;childLayout=tableLayout;fixedRows=1;rowLines=0;fontStyle=1;align=center;resizeLast=1;html=1;fillColor=#f8cecc;strokeColor=#b85450;" vertex="1" parent="1">
          <mxGeometry x="770" y="760" width="180" height="150" as="geometry" />
        </mxCell>
        <mxCell id="cM16gNGTXKO5gfXRbckl-17" value="" style="shape=tableRow;horizontal=0;startSize=0;swimlaneHead=0;swimlaneBody=0;fillColor=none;collapsible=0;dropTarget=0;points=[[0,0.5],[1,0.5]];portConstraint=eastwest;top=0;left=0;right=0;bottom=1;" vertex="1" parent="cM16gNGTXKO5gfXRbckl-16">
          <mxGeometry y="30" width="180" height="30" as="geometry" />
        </mxCell>
        <mxCell id="cM16gNGTXKO5gfXRbckl-18" value="PK" style="shape=partialRectangle;connectable=0;fillColor=none;top=0;left=0;bottom=0;right=0;fontStyle=1;overflow=hidden;whiteSpace=wrap;html=1;" vertex="1" parent="cM16gNGTXKO5gfXRbckl-17">
          <mxGeometry width="30" height="30" as="geometry">
            <mxRectangle width="30" height="30" as="alternateBounds" />
          </mxGeometry>
        </mxCell>
        <mxCell id="cM16gNGTXKO5gfXRbckl-19" value="&lt;font color=&quot;#ff0000&quot;&gt;user_id&lt;/font&gt;" style="shape=partialRectangle;connectable=0;fillColor=none;top=0;left=0;bottom=0;right=0;align=left;spacingLeft=6;fontStyle=5;overflow=hidden;whiteSpace=wrap;html=1;" vertex="1" parent="cM16gNGTXKO5gfXRbckl-17">
          <mxGeometry x="30" width="150" height="30" as="geometry">
            <mxRectangle width="150" height="30" as="alternateBounds" />
          </mxGeometry>
        </mxCell>
        <mxCell id="cM16gNGTXKO5gfXRbckl-20" value="" style="shape=tableRow;horizontal=0;startSize=0;swimlaneHead=0;swimlaneBody=0;fillColor=none;collapsible=0;dropTarget=0;points=[[0,0.5],[1,0.5]];portConstraint=eastwest;top=0;left=0;right=0;bottom=0;" vertex="1" parent="cM16gNGTXKO5gfXRbckl-16">
          <mxGeometry y="60" width="180" height="30" as="geometry" />
        </mxCell>
        <mxCell id="cM16gNGTXKO5gfXRbckl-21" value="" style="shape=partialRectangle;connectable=0;fillColor=none;top=0;left=0;bottom=0;right=0;editable=1;overflow=hidden;whiteSpace=wrap;html=1;" vertex="1" parent="cM16gNGTXKO5gfXRbckl-20">
          <mxGeometry width="30" height="30" as="geometry">
            <mxRectangle width="30" height="30" as="alternateBounds" />
          </mxGeometry>
        </mxCell>
        <mxCell id="cM16gNGTXKO5gfXRbckl-22" value="user_name" style="shape=partialRectangle;connectable=0;fillColor=none;top=0;left=0;bottom=0;right=0;align=left;spacingLeft=6;overflow=hidden;whiteSpace=wrap;html=1;" vertex="1" parent="cM16gNGTXKO5gfXRbckl-20">
          <mxGeometry x="30" width="150" height="30" as="geometry">
            <mxRectangle width="150" height="30" as="alternateBounds" />
          </mxGeometry>
        </mxCell>
        <mxCell id="cM16gNGTXKO5gfXRbckl-23" value="" style="shape=tableRow;horizontal=0;startSize=0;swimlaneHead=0;swimlaneBody=0;fillColor=none;collapsible=0;dropTarget=0;points=[[0,0.5],[1,0.5]];portConstraint=eastwest;top=0;left=0;right=0;bottom=0;" vertex="1" parent="cM16gNGTXKO5gfXRbckl-16">
          <mxGeometry y="90" width="180" height="30" as="geometry" />
        </mxCell>
        <mxCell id="cM16gNGTXKO5gfXRbckl-24" value="" style="shape=partialRectangle;connectable=0;fillColor=none;top=0;left=0;bottom=0;right=0;editable=1;overflow=hidden;whiteSpace=wrap;html=1;" vertex="1" parent="cM16gNGTXKO5gfXRbckl-23">
          <mxGeometry width="30" height="30" as="geometry">
            <mxRectangle width="30" height="30" as="alternateBounds" />
          </mxGeometry>
        </mxCell>
        <mxCell id="cM16gNGTXKO5gfXRbckl-25" value="&lt;b&gt;&lt;font color=&quot;#0000ff&quot;&gt;agency_id&amp;nbsp;所属经销商&lt;/font&gt;&lt;/b&gt;" style="shape=partialRectangle;connectable=0;fillColor=none;top=0;left=0;bottom=0;right=0;align=left;spacingLeft=6;overflow=hidden;whiteSpace=wrap;html=1;" vertex="1" parent="cM16gNGTXKO5gfXRbckl-23">
          <mxGeometry x="30" width="150" height="30" as="geometry">
            <mxRectangle width="150" height="30" as="alternateBounds" />
          </mxGeometry>
        </mxCell>
        <mxCell id="cM16gNGTXKO5gfXRbckl-26" value="" style="shape=tableRow;horizontal=0;startSize=0;swimlaneHead=0;swimlaneBody=0;fillColor=none;collapsible=0;dropTarget=0;points=[[0,0.5],[1,0.5]];portConstraint=eastwest;top=0;left=0;right=0;bottom=0;" vertex="1" parent="cM16gNGTXKO5gfXRbckl-16">
          <mxGeometry y="120" width="180" height="30" as="geometry" />
        </mxCell>
        <mxCell id="cM16gNGTXKO5gfXRbckl-27" value="" style="shape=partialRectangle;connectable=0;fillColor=none;top=0;left=0;bottom=0;right=0;editable=1;overflow=hidden;whiteSpace=wrap;html=1;" vertex="1" parent="cM16gNGTXKO5gfXRbckl-26">
          <mxGeometry width="30" height="30" as="geometry">
            <mxRectangle width="30" height="30" as="alternateBounds" />
          </mxGeometry>
        </mxCell>
        <mxCell id="cM16gNGTXKO5gfXRbckl-28" value="&lt;font color=&quot;#0000ff&quot;&gt;&lt;b&gt;sale_id&amp;nbsp; 销售ID&lt;/b&gt;&lt;/font&gt;" style="shape=partialRectangle;connectable=0;fillColor=none;top=0;left=0;bottom=0;right=0;align=left;spacingLeft=6;overflow=hidden;whiteSpace=wrap;html=1;" vertex="1" parent="cM16gNGTXKO5gfXRbckl-26">
          <mxGeometry x="30" width="150" height="30" as="geometry">
            <mxRectangle width="150" height="30" as="alternateBounds" />
          </mxGeometry>
        </mxCell>
        <mxCell id="cM16gNGTXKO5gfXRbckl-29" value="" style="endArrow=none;dashed=1;html=1;dashPattern=1 3;strokeWidth=2;rounded=0;exitX=0.839;exitY=0.1;exitDx=0;exitDy=0;exitPerimeter=0;" edge="1" parent="cM16gNGTXKO5gfXRbckl-16" source="cM16gNGTXKO5gfXRbckl-23">
          <mxGeometry width="50" height="50" relative="1" as="geometry">
            <mxPoint x="130" y="250" as="sourcePoint" />
            <mxPoint x="90" y="50" as="targetPoint" />
            <Array as="points">
              <mxPoint x="140" y="50" />
            </Array>
          </mxGeometry>
        </mxCell>
        <mxCell id="cM16gNGTXKO5gfXRbckl-30" value="is_sale&amp;nbsp;是否销售员;{&quot;1&quot;:&quot;是&quot;,&quot;0&quot;:&quot;否&quot;} ----小程序的&lt;b&gt;销售管理&lt;/b&gt;的开关" style="shape=partialRectangle;connectable=0;fillColor=none;top=0;left=0;bottom=0;right=0;align=left;spacingLeft=6;overflow=hidden;whiteSpace=wrap;html=1;" vertex="1" parent="1">
          <mxGeometry x="190" y="890" width="180" height="50" as="geometry">
            <mxRectangle width="120" height="30" as="alternateBounds" />
          </mxGeometry>
        </mxCell>
        <mxCell id="cM16gNGTXKO5gfXRbckl-31" value="&lt;div&gt;&lt;br&gt;&lt;/div&gt;" style="shape=partialRectangle;connectable=0;fillColor=none;top=0;left=0;bottom=0;right=0;align=left;spacingLeft=6;overflow=hidden;whiteSpace=wrap;html=1;" vertex="1" parent="1">
          <mxGeometry x="540" y="1010" width="130" height="30" as="geometry">
            <mxRectangle width="130" height="30" as="alternateBounds" />
          </mxGeometry>
        </mxCell>
        <mxCell id="cM16gNGTXKO5gfXRbckl-32" value="&lt;span style=&quot;font-weight: 400; text-align: left;&quot;&gt;cor_user_staff&amp;nbsp;&amp;nbsp;&lt;/span&gt;&lt;div&gt;&lt;span style=&quot;font-weight: 400; text-align: left; background-color: initial;&quot;&gt;会员-&lt;/span&gt;&lt;span style=&quot;background-color: initial; font-weight: 400; text-align: left;&quot;&gt;员工表&lt;/span&gt;&lt;/div&gt;" style="shape=table;startSize=30;container=1;collapsible=1;childLayout=tableLayout;fixedRows=1;rowLines=0;fontStyle=1;align=center;resizeLast=1;html=1;fillColor=#f8cecc;strokeColor=#b85450;" vertex="1" parent="1">
          <mxGeometry x="470" y="880" width="206" height="140" as="geometry" />
        </mxCell>
        <mxCell id="cM16gNGTXKO5gfXRbckl-33" value="" style="shape=tableRow;horizontal=0;startSize=0;swimlaneHead=0;swimlaneBody=0;fillColor=none;collapsible=0;dropTarget=0;points=[[0,0.5],[1,0.5]];portConstraint=eastwest;top=0;left=0;right=0;bottom=1;" vertex="1" parent="cM16gNGTXKO5gfXRbckl-32">
          <mxGeometry y="30" width="206" height="30" as="geometry" />
        </mxCell>
        <mxCell id="cM16gNGTXKO5gfXRbckl-34" value="PK" style="shape=partialRectangle;connectable=0;fillColor=none;top=0;left=0;bottom=0;right=0;fontStyle=1;overflow=hidden;whiteSpace=wrap;html=1;" vertex="1" parent="cM16gNGTXKO5gfXRbckl-33">
          <mxGeometry width="30" height="30" as="geometry">
            <mxRectangle width="30" height="30" as="alternateBounds" />
          </mxGeometry>
        </mxCell>
        <mxCell id="cM16gNGTXKO5gfXRbckl-35" value="&lt;font color=&quot;#ff0000&quot;&gt;staff_id&lt;/font&gt;" style="shape=partialRectangle;connectable=0;fillColor=none;top=0;left=0;bottom=0;right=0;align=left;spacingLeft=6;fontStyle=5;overflow=hidden;whiteSpace=wrap;html=1;" vertex="1" parent="cM16gNGTXKO5gfXRbckl-33">
          <mxGeometry x="30" width="176" height="30" as="geometry">
            <mxRectangle width="176" height="30" as="alternateBounds" />
          </mxGeometry>
        </mxCell>
        <mxCell id="cM16gNGTXKO5gfXRbckl-36" value="" style="shape=tableRow;horizontal=0;startSize=0;swimlaneHead=0;swimlaneBody=0;fillColor=none;collapsible=0;dropTarget=0;points=[[0,0.5],[1,0.5]];portConstraint=eastwest;top=0;left=0;right=0;bottom=0;" vertex="1" parent="cM16gNGTXKO5gfXRbckl-32">
          <mxGeometry y="60" width="206" height="30" as="geometry" />
        </mxCell>
        <mxCell id="cM16gNGTXKO5gfXRbckl-37" value="" style="shape=partialRectangle;connectable=0;fillColor=none;top=0;left=0;bottom=0;right=0;editable=1;overflow=hidden;whiteSpace=wrap;html=1;" vertex="1" parent="cM16gNGTXKO5gfXRbckl-36">
          <mxGeometry width="30" height="30" as="geometry">
            <mxRectangle width="30" height="30" as="alternateBounds" />
          </mxGeometry>
        </mxCell>
        <mxCell id="cM16gNGTXKO5gfXRbckl-38" value="staff_name &amp;amp; password&lt;div&gt;&lt;br&gt;&lt;/div&gt;" style="shape=partialRectangle;connectable=0;fillColor=none;top=0;left=0;bottom=0;right=0;align=left;spacingLeft=6;overflow=hidden;whiteSpace=wrap;html=1;" vertex="1" parent="cM16gNGTXKO5gfXRbckl-36">
          <mxGeometry x="30" width="176" height="30" as="geometry">
            <mxRectangle width="176" height="30" as="alternateBounds" />
          </mxGeometry>
        </mxCell>
        <mxCell id="cM16gNGTXKO5gfXRbckl-39" value="" style="shape=tableRow;horizontal=0;startSize=0;swimlaneHead=0;swimlaneBody=0;fillColor=none;collapsible=0;dropTarget=0;points=[[0,0.5],[1,0.5]];portConstraint=eastwest;top=0;left=0;right=0;bottom=0;" vertex="1" parent="cM16gNGTXKO5gfXRbckl-32">
          <mxGeometry y="90" width="206" height="30" as="geometry" />
        </mxCell>
        <mxCell id="cM16gNGTXKO5gfXRbckl-40" value="" style="shape=partialRectangle;connectable=0;fillColor=none;top=0;left=0;bottom=0;right=0;editable=1;overflow=hidden;whiteSpace=wrap;html=1;" vertex="1" parent="cM16gNGTXKO5gfXRbckl-39">
          <mxGeometry width="30" height="30" as="geometry">
            <mxRectangle width="30" height="30" as="alternateBounds" />
          </mxGeometry>
        </mxCell>
        <mxCell id="cM16gNGTXKO5gfXRbckl-41" value="&lt;font color=&quot;#0000ff&quot;&gt;&lt;b&gt;user_id&lt;/b&gt;&lt;/font&gt;" style="shape=partialRectangle;connectable=0;fillColor=none;top=0;left=0;bottom=0;right=0;align=left;spacingLeft=6;overflow=hidden;whiteSpace=wrap;html=1;" vertex="1" parent="cM16gNGTXKO5gfXRbckl-39">
          <mxGeometry x="30" width="176" height="30" as="geometry">
            <mxRectangle width="176" height="30" as="alternateBounds" />
          </mxGeometry>
        </mxCell>
        <mxCell id="cM16gNGTXKO5gfXRbckl-42" value="" style="shape=tableRow;horizontal=0;startSize=0;swimlaneHead=0;swimlaneBody=0;fillColor=none;collapsible=0;dropTarget=0;points=[[0,0.5],[1,0.5]];portConstraint=eastwest;top=0;left=0;right=0;bottom=0;" vertex="1" parent="cM16gNGTXKO5gfXRbckl-32">
          <mxGeometry y="120" width="206" height="20" as="geometry" />
        </mxCell>
        <mxCell id="cM16gNGTXKO5gfXRbckl-43" value="" style="shape=partialRectangle;connectable=0;fillColor=none;top=0;left=0;bottom=0;right=0;editable=1;overflow=hidden;whiteSpace=wrap;html=1;" vertex="1" parent="cM16gNGTXKO5gfXRbckl-42">
          <mxGeometry width="30" height="20" as="geometry">
            <mxRectangle width="30" height="20" as="alternateBounds" />
          </mxGeometry>
        </mxCell>
        <mxCell id="cM16gNGTXKO5gfXRbckl-44" value="is_sale&amp;nbsp;&amp;nbsp;是否是销售员 0否 1是" style="shape=partialRectangle;connectable=0;fillColor=none;top=0;left=0;bottom=0;right=0;align=left;spacingLeft=6;overflow=hidden;whiteSpace=wrap;html=1;" vertex="1" parent="cM16gNGTXKO5gfXRbckl-42">
          <mxGeometry x="30" width="176" height="20" as="geometry">
            <mxRectangle width="176" height="20" as="alternateBounds" />
          </mxGeometry>
        </mxCell>
        <mxCell id="cM16gNGTXKO5gfXRbckl-45" value="cor_agency_database&lt;div&gt;经销商数据库&lt;/div&gt;" style="shape=table;startSize=30;container=1;collapsible=1;childLayout=tableLayout;fixedRows=1;rowLines=0;fontStyle=1;align=center;resizeLast=1;html=1;" vertex="1" parent="1">
          <mxGeometry x="990" y="790" width="240" height="155" as="geometry" />
        </mxCell>
        <mxCell id="cM16gNGTXKO5gfXRbckl-46" value="" style="shape=tableRow;horizontal=0;startSize=0;swimlaneHead=0;swimlaneBody=0;fillColor=none;collapsible=0;dropTarget=0;points=[[0,0.5],[1,0.5]];portConstraint=eastwest;top=0;left=0;right=0;bottom=1;" vertex="1" parent="cM16gNGTXKO5gfXRbckl-45">
          <mxGeometry y="30" width="240" height="30" as="geometry" />
        </mxCell>
        <mxCell id="cM16gNGTXKO5gfXRbckl-47" value="PK" style="shape=partialRectangle;connectable=0;fillColor=none;top=0;left=0;bottom=0;right=0;fontStyle=1;overflow=hidden;whiteSpace=wrap;html=1;" vertex="1" parent="cM16gNGTXKO5gfXRbckl-46">
          <mxGeometry width="30" height="30" as="geometry">
            <mxRectangle width="30" height="30" as="alternateBounds" />
          </mxGeometry>
        </mxCell>
        <mxCell id="cM16gNGTXKO5gfXRbckl-48" value="&lt;font color=&quot;#ff0000&quot;&gt;id&lt;/font&gt;" style="shape=partialRectangle;connectable=0;fillColor=none;top=0;left=0;bottom=0;right=0;align=left;spacingLeft=6;fontStyle=5;overflow=hidden;whiteSpace=wrap;html=1;" vertex="1" parent="cM16gNGTXKO5gfXRbckl-46">
          <mxGeometry x="30" width="210" height="30" as="geometry">
            <mxRectangle width="210" height="30" as="alternateBounds" />
          </mxGeometry>
        </mxCell>
        <mxCell id="cM16gNGTXKO5gfXRbckl-49" value="" style="shape=tableRow;horizontal=0;startSize=0;swimlaneHead=0;swimlaneBody=0;fillColor=none;collapsible=0;dropTarget=0;points=[[0,0.5],[1,0.5]];portConstraint=eastwest;top=0;left=0;right=0;bottom=0;" vertex="1" parent="cM16gNGTXKO5gfXRbckl-45">
          <mxGeometry y="60" width="240" height="30" as="geometry" />
        </mxCell>
        <mxCell id="cM16gNGTXKO5gfXRbckl-50" value="" style="shape=partialRectangle;connectable=0;fillColor=none;top=0;left=0;bottom=0;right=0;editable=1;overflow=hidden;whiteSpace=wrap;html=1;" vertex="1" parent="cM16gNGTXKO5gfXRbckl-49">
          <mxGeometry width="30" height="30" as="geometry">
            <mxRectangle width="30" height="30" as="alternateBounds" />
          </mxGeometry>
        </mxCell>
        <mxCell id="cM16gNGTXKO5gfXRbckl-51" value="&lt;font color=&quot;#0000ff&quot;&gt;&lt;b&gt;agency_id&amp;nbsp;&amp;nbsp;经销商ID&lt;/b&gt;&lt;/font&gt;" style="shape=partialRectangle;connectable=0;fillColor=none;top=0;left=0;bottom=0;right=0;align=left;spacingLeft=6;overflow=hidden;whiteSpace=wrap;html=1;" vertex="1" parent="cM16gNGTXKO5gfXRbckl-49">
          <mxGeometry x="30" width="210" height="30" as="geometry">
            <mxRectangle width="210" height="30" as="alternateBounds" />
          </mxGeometry>
        </mxCell>
        <mxCell id="cM16gNGTXKO5gfXRbckl-52" value="" style="shape=tableRow;horizontal=0;startSize=0;swimlaneHead=0;swimlaneBody=0;fillColor=none;collapsible=0;dropTarget=0;points=[[0,0.5],[1,0.5]];portConstraint=eastwest;top=0;left=0;right=0;bottom=0;" vertex="1" parent="cM16gNGTXKO5gfXRbckl-45">
          <mxGeometry y="90" width="240" height="30" as="geometry" />
        </mxCell>
        <mxCell id="cM16gNGTXKO5gfXRbckl-53" value="" style="shape=partialRectangle;connectable=0;fillColor=none;top=0;left=0;bottom=0;right=0;editable=1;overflow=hidden;whiteSpace=wrap;html=1;" vertex="1" parent="cM16gNGTXKO5gfXRbckl-52">
          <mxGeometry width="30" height="30" as="geometry">
            <mxRectangle width="30" height="30" as="alternateBounds" />
          </mxGeometry>
        </mxCell>
        <mxCell id="cM16gNGTXKO5gfXRbckl-54" value="agency_name&amp;nbsp;经销商名称" style="shape=partialRectangle;connectable=0;fillColor=none;top=0;left=0;bottom=0;right=0;align=left;spacingLeft=6;overflow=hidden;whiteSpace=wrap;html=1;" vertex="1" parent="cM16gNGTXKO5gfXRbckl-52">
          <mxGeometry x="30" width="210" height="30" as="geometry">
            <mxRectangle width="210" height="30" as="alternateBounds" />
          </mxGeometry>
        </mxCell>
        <mxCell id="cM16gNGTXKO5gfXRbckl-55" value="" style="shape=tableRow;horizontal=0;startSize=0;swimlaneHead=0;swimlaneBody=0;fillColor=none;collapsible=0;dropTarget=0;points=[[0,0.5],[1,0.5]];portConstraint=eastwest;top=0;left=0;right=0;bottom=0;" vertex="1" parent="cM16gNGTXKO5gfXRbckl-45">
          <mxGeometry y="120" width="240" height="30" as="geometry" />
        </mxCell>
        <mxCell id="cM16gNGTXKO5gfXRbckl-56" value="" style="shape=partialRectangle;connectable=0;fillColor=none;top=0;left=0;bottom=0;right=0;editable=1;overflow=hidden;whiteSpace=wrap;html=1;" vertex="1" parent="cM16gNGTXKO5gfXRbckl-55">
          <mxGeometry width="30" height="30" as="geometry">
            <mxRectangle width="30" height="30" as="alternateBounds" />
          </mxGeometry>
        </mxCell>
        <mxCell id="cM16gNGTXKO5gfXRbckl-57" value="status&amp;nbsp;状态;{&quot;0&quot;:&quot;关闭&quot;,&quot;1&quot;:&quot;开启&quot;}" style="shape=partialRectangle;connectable=0;fillColor=none;top=0;left=0;bottom=0;right=0;align=left;spacingLeft=6;overflow=hidden;whiteSpace=wrap;html=1;" vertex="1" parent="cM16gNGTXKO5gfXRbckl-55">
          <mxGeometry x="30" width="210" height="30" as="geometry">
            <mxRectangle width="210" height="30" as="alternateBounds" />
          </mxGeometry>
        </mxCell>
        <mxCell id="cM16gNGTXKO5gfXRbckl-58" value="" style="endArrow=classic;html=1;rounded=0;exitX=-0.011;exitY=0.8;exitDx=0;exitDy=0;exitPerimeter=0;entryX=1.019;entryY=0.267;entryDx=0;entryDy=0;entryPerimeter=0;" edge="1" parent="1" source="cM16gNGTXKO5gfXRbckl-26" target="cM16gNGTXKO5gfXRbckl-33">
          <mxGeometry width="50" height="50" relative="1" as="geometry">
            <mxPoint x="910" y="1000" as="sourcePoint" />
            <mxPoint x="960" y="950" as="targetPoint" />
          </mxGeometry>
        </mxCell>
        <mxCell id="cM16gNGTXKO5gfXRbckl-59" value="" style="endArrow=classic;html=1;rounded=0;exitX=0;exitY=0.5;exitDx=0;exitDy=0;entryX=1;entryY=0.5;entryDx=0;entryDy=0;" edge="1" parent="1" source="cM16gNGTXKO5gfXRbckl-26" target="cM16gNGTXKO5gfXRbckl-3">
          <mxGeometry width="50" height="50" relative="1" as="geometry">
            <mxPoint x="910" y="1000" as="sourcePoint" />
            <mxPoint x="960" y="950" as="targetPoint" />
          </mxGeometry>
        </mxCell>
        <mxCell id="cM16gNGTXKO5gfXRbckl-60" value="" style="endArrow=none;dashed=1;html=1;dashPattern=1 3;strokeWidth=2;rounded=0;entryX=0;entryY=0.5;entryDx=0;entryDy=0;" edge="1" parent="1" target="cM16gNGTXKO5gfXRbckl-17">
          <mxGeometry width="50" height="50" relative="1" as="geometry">
            <mxPoint x="610" y="988" as="sourcePoint" />
            <mxPoint x="770" y="808" as="targetPoint" />
            <Array as="points">
              <mxPoint x="704" y="988" />
              <mxPoint x="700" y="803" />
            </Array>
          </mxGeometry>
        </mxCell>
        <mxCell id="cM16gNGTXKO5gfXRbckl-61" value="cor_user_token" style="shape=table;startSize=30;container=1;collapsible=1;childLayout=tableLayout;fixedRows=1;rowLines=0;fontStyle=1;align=center;resizeLast=1;html=1;" vertex="1" parent="1">
          <mxGeometry x="160" y="965" width="180" height="150" as="geometry" />
        </mxCell>
        <mxCell id="cM16gNGTXKO5gfXRbckl-62" value="" style="shape=tableRow;horizontal=0;startSize=0;swimlaneHead=0;swimlaneBody=0;fillColor=none;collapsible=0;dropTarget=0;points=[[0,0.5],[1,0.5]];portConstraint=eastwest;top=0;left=0;right=0;bottom=1;" vertex="1" parent="cM16gNGTXKO5gfXRbckl-61">
          <mxGeometry y="30" width="180" height="30" as="geometry" />
        </mxCell>
        <mxCell id="cM16gNGTXKO5gfXRbckl-63" value="PK" style="shape=partialRectangle;connectable=0;fillColor=none;top=0;left=0;bottom=0;right=0;fontStyle=1;overflow=hidden;whiteSpace=wrap;html=1;" vertex="1" parent="cM16gNGTXKO5gfXRbckl-62">
          <mxGeometry width="30" height="30" as="geometry">
            <mxRectangle width="30" height="30" as="alternateBounds" />
          </mxGeometry>
        </mxCell>
        <mxCell id="cM16gNGTXKO5gfXRbckl-64" value="&lt;font style=&quot;&quot; color=&quot;#ff0000&quot;&gt;staff_id&lt;/font&gt;" style="shape=partialRectangle;connectable=0;fillColor=none;top=0;left=0;bottom=0;right=0;align=left;spacingLeft=6;fontStyle=5;overflow=hidden;whiteSpace=wrap;html=1;" vertex="1" parent="cM16gNGTXKO5gfXRbckl-62">
          <mxGeometry x="30" width="150" height="30" as="geometry">
            <mxRectangle width="150" height="30" as="alternateBounds" />
          </mxGeometry>
        </mxCell>
        <mxCell id="cM16gNGTXKO5gfXRbckl-65" value="" style="shape=tableRow;horizontal=0;startSize=0;swimlaneHead=0;swimlaneBody=0;fillColor=none;collapsible=0;dropTarget=0;points=[[0,0.5],[1,0.5]];portConstraint=eastwest;top=0;left=0;right=0;bottom=0;" vertex="1" parent="cM16gNGTXKO5gfXRbckl-61">
          <mxGeometry y="60" width="180" height="30" as="geometry" />
        </mxCell>
        <mxCell id="cM16gNGTXKO5gfXRbckl-66" value="" style="shape=partialRectangle;connectable=0;fillColor=none;top=0;left=0;bottom=0;right=0;editable=1;overflow=hidden;whiteSpace=wrap;html=1;" vertex="1" parent="cM16gNGTXKO5gfXRbckl-65">
          <mxGeometry width="30" height="30" as="geometry">
            <mxRectangle width="30" height="30" as="alternateBounds" />
          </mxGeometry>
        </mxCell>
        <mxCell id="cM16gNGTXKO5gfXRbckl-67" value="token" style="shape=partialRectangle;connectable=0;fillColor=none;top=0;left=0;bottom=0;right=0;align=left;spacingLeft=6;overflow=hidden;whiteSpace=wrap;html=1;" vertex="1" parent="cM16gNGTXKO5gfXRbckl-65">
          <mxGeometry x="30" width="150" height="30" as="geometry">
            <mxRectangle width="150" height="30" as="alternateBounds" />
          </mxGeometry>
        </mxCell>
        <mxCell id="cM16gNGTXKO5gfXRbckl-68" value="" style="shape=tableRow;horizontal=0;startSize=0;swimlaneHead=0;swimlaneBody=0;fillColor=none;collapsible=0;dropTarget=0;points=[[0,0.5],[1,0.5]];portConstraint=eastwest;top=0;left=0;right=0;bottom=0;" vertex="1" parent="cM16gNGTXKO5gfXRbckl-61">
          <mxGeometry y="90" width="180" height="30" as="geometry" />
        </mxCell>
        <mxCell id="cM16gNGTXKO5gfXRbckl-69" value="" style="shape=partialRectangle;connectable=0;fillColor=none;top=0;left=0;bottom=0;right=0;editable=1;overflow=hidden;whiteSpace=wrap;html=1;" vertex="1" parent="cM16gNGTXKO5gfXRbckl-68">
          <mxGeometry width="30" height="30" as="geometry">
            <mxRectangle width="30" height="30" as="alternateBounds" />
          </mxGeometry>
        </mxCell>
        <mxCell id="cM16gNGTXKO5gfXRbckl-70" value="tunnel" style="shape=partialRectangle;connectable=0;fillColor=none;top=0;left=0;bottom=0;right=0;align=left;spacingLeft=6;overflow=hidden;whiteSpace=wrap;html=1;" vertex="1" parent="cM16gNGTXKO5gfXRbckl-68">
          <mxGeometry x="30" width="150" height="30" as="geometry">
            <mxRectangle width="150" height="30" as="alternateBounds" />
          </mxGeometry>
        </mxCell>
        <mxCell id="cM16gNGTXKO5gfXRbckl-71" value="" style="shape=tableRow;horizontal=0;startSize=0;swimlaneHead=0;swimlaneBody=0;fillColor=none;collapsible=0;dropTarget=0;points=[[0,0.5],[1,0.5]];portConstraint=eastwest;top=0;left=0;right=0;bottom=0;" vertex="1" parent="cM16gNGTXKO5gfXRbckl-61">
          <mxGeometry y="120" width="180" height="30" as="geometry" />
        </mxCell>
        <mxCell id="cM16gNGTXKO5gfXRbckl-72" value="" style="shape=partialRectangle;connectable=0;fillColor=none;top=0;left=0;bottom=0;right=0;editable=1;overflow=hidden;whiteSpace=wrap;html=1;" vertex="1" parent="cM16gNGTXKO5gfXRbckl-71">
          <mxGeometry width="30" height="30" as="geometry">
            <mxRectangle width="30" height="30" as="alternateBounds" />
          </mxGeometry>
        </mxCell>
        <mxCell id="cM16gNGTXKO5gfXRbckl-73" value="expire_time" style="shape=partialRectangle;connectable=0;fillColor=none;top=0;left=0;bottom=0;right=0;align=left;spacingLeft=6;overflow=hidden;whiteSpace=wrap;html=1;" vertex="1" parent="cM16gNGTXKO5gfXRbckl-71">
          <mxGeometry x="30" width="150" height="30" as="geometry">
            <mxRectangle width="150" height="30" as="alternateBounds" />
          </mxGeometry>
        </mxCell>
        <mxCell id="cM16gNGTXKO5gfXRbckl-74" value="" style="endArrow=classic;html=1;rounded=0;exitX=1;exitY=0.5;exitDx=0;exitDy=0;entryX=0;entryY=0.5;entryDx=0;entryDy=0;" edge="1" parent="1" source="cM16gNGTXKO5gfXRbckl-23" target="cM16gNGTXKO5gfXRbckl-49">
          <mxGeometry width="50" height="50" relative="1" as="geometry">
            <mxPoint x="970" y="740" as="sourcePoint" />
            <mxPoint x="1020" y="690" as="targetPoint" />
          </mxGeometry>
        </mxCell>
        <mxCell id="cM16gNGTXKO5gfXRbckl-75" value="" style="endArrow=classic;html=1;rounded=0;exitX=1;exitY=0.5;exitDx=0;exitDy=0;entryX=0;entryY=0.5;entryDx=0;entryDy=0;" edge="1" parent="1" source="cM16gNGTXKO5gfXRbckl-62" target="cM16gNGTXKO5gfXRbckl-33">
          <mxGeometry width="50" height="50" relative="1" as="geometry">
            <mxPoint x="370" y="1050" as="sourcePoint" />
            <mxPoint x="420" y="1000" as="targetPoint" />
          </mxGeometry>
        </mxCell>
        <mxCell id="cM16gNGTXKO5gfXRbckl-76" value="" style="endArrow=classic;html=1;rounded=0;" edge="1" parent="1">
          <mxGeometry width="50" height="50" relative="1" as="geometry">
            <mxPoint x="160" y="1010" as="sourcePoint" />
            <mxPoint x="160" y="775" as="targetPoint" />
            <Array as="points">
              <mxPoint x="120" y="1010" />
              <mxPoint x="120" y="775" />
            </Array>
          </mxGeometry>
        </mxCell>
        <mxCell id="cM16gNGTXKO5gfXRbckl-77" value="&lt;font style=&quot;font-size: 17px;&quot;&gt;&lt;b&gt;&lt;br&gt;&lt;span style=&quot;color: rgb(0, 0, 0); font-family: Helvetica; font-style: normal; font-variant-ligatures: normal; font-variant-caps: normal; letter-spacing: normal; orphans: 2; text-align: center; text-indent: 0px; text-transform: none; widows: 2; word-spacing: 0px; -webkit-text-stroke-width: 0px; white-space: normal; background-color: rgb(251, 251, 251); text-decoration-thickness: initial; text-decoration-style: initial; text-decoration-color: initial; float: none; display: inline !important;&quot;&gt;用户体系（各个端）&lt;/span&gt;&lt;br&gt;&lt;/b&gt;&lt;/font&gt;" style="text;html=1;align=center;verticalAlign=middle;whiteSpace=wrap;rounded=0;" vertex="1" parent="1">
          <mxGeometry x="540" y="565" width="200" height="20" as="geometry" />
        </mxCell>
      </root>
    </mxGraphModel>
  </diagram>
</mxfile>
